<svg xmlns="http://www.w3.org/2000/svg" version="1.1" xmlns:xlink="http://www.w3.org/1999/xlink" xmlns:svgjs="http://svgjs.dev/svgjs" width="1440" height="560" preserveAspectRatio="none" viewBox="0 0 1440 560"><g mask="url(&quot;#SvgjsMask1087&quot;)" fill="none"><rect width="1440" height="560" x="0" y="0" fill="rgba(249, 249, 247, 1)"></rect><path d="M267.21 90.3 a173.41 173.41 0 1 0 346.82 0 a173.41 173.41 0 1 0 -346.82 0z" fill="rgba(242, 245, 247, 1)" class="triangle-float2"></path><path d="M-100.03526257100539 117.304315941438L-31.202635252802708 241.4816627442761 92.9747115500354 172.6490354260734 24.142084231832698 48.47168862323532z" fill="rgba(242, 245, 247, 1)" class="triangle-float2"></path><path d="M178.969,759.47C236.25,757.445,273.002,703.302,297.708,651.583C318.615,607.815,317.058,559.212,295.35,515.836C270.657,466.495,234.101,416.506,178.969,414.317C121.153,412.022,73.097,455.11,45.401,505.913C18.961,554.412,18.998,611.652,44.743,660.524C72.509,713.233,119.431,761.574,178.969,759.47" fill="rgba(242, 245, 247, 1)" class="triangle-float3"></path><path d="M335.7137073254452 144.68709589180372L224.33621276075087 116.80479720031211 250.31282654754733 213.75083966123063z" fill="rgba(242, 245, 247, 1)" class="triangle-float3"></path><path d="M1136.76 343.74 a182.7 182.7 0 1 0 365.4 0 a182.7 182.7 0 1 0 -365.4 0z" fill="rgba(242, 245, 247, 1)" class="triangle-float1"></path><path d="M1315.5809376565912 376.4731094152686L1451.8321086561427 479.3494624537925 1472.6026926291674 331.5590781358939z" fill="rgba(242, 245, 247, 1)" class="triangle-float1"></path><path d="M853.296768694263 600.9283150736535L866.4521819214536 507.32268611144866 772.8465529592488 494.167272884258 759.6911397320582 587.7729018464629z" fill="rgba(242, 245, 247, 1)" class="triangle-float2"></path></g><defs><mask id="SvgjsMask1087"><rect width="1440" height="560" fill="#ffffff"></rect></mask></defs></svg>