<svg xmlns="http://www.w3.org/2000/svg" version="1.1" xmlns:xlink="http://www.w3.org/1999/xlink" xmlns:svgjs="http://svgjs.dev/svgjs" width="1440" height="560" preserveAspectRatio="none" viewBox="0 0 1440 560"><g mask="url(&quot;#SvgjsMask1138&quot;)" fill="none"><rect width="1440" height="560" x="0" y="0" fill="rgba(0, 0, 0, 1)"></rect><path d="M1066.0498399501548 429.0491973263887L907.0011342064624 471.5037514821422 1006.9634987827096 575.0178102390307z" fill="rgba(1, 13, 25, 1)" class="triangle-float3"></path><path d="M966.35 194.99 a169.27 169.27 0 1 0 338.54 0 a169.27 169.27 0 1 0 -338.54 0z" fill="rgba(1, 13, 25, 1)" class="triangle-float3"></path><path d="M585.593,562.422C636.699,565.333,696.895,564.327,722.437,519.966C747.953,475.651,718.896,422.905,690.355,380.475C665.881,344.09,629.354,319.317,585.593,316.525C535.805,313.349,480.255,322.54,454.802,365.447C429.001,408.94,445.353,463.647,473.326,505.776C498.177,543.202,540.741,559.867,585.593,562.422" fill="rgba(1, 13, 25, 1)" class="triangle-float3"></path><path d="M432.145,163.523C469.539,161.833,492.52,127.535,511.779,95.437C531.878,61.938,556.788,22.603,536.856,-10.995C517.107,-44.284,470.792,-40.929,432.145,-38.797C398.409,-36.936,364.229,-28.702,345.699,-0.45C325.338,30.594,321.666,70.408,338.98,103.249C357.468,138.317,392.542,165.313,432.145,163.523" fill="rgba(1, 13, 25, 1)" class="triangle-float2"></path><path d="M1102.7421781367336 170.20878598114L1241.3630506688094 253.5006092609036 1324.654873948573 114.87973672882782 1186.0340014164972 31.587913449064246z" fill="rgba(1, 13, 25, 1)" class="triangle-float3"></path><path d="M342.93747363413274 97.45678004330286L297.8378840995779 277.6097632615639 454.64800834235257 235.59261710568845z" fill="rgba(1, 13, 25, 1)" class="triangle-float1"></path><path d="M91.42 499.65 a154.35 154.35 0 1 0 308.7 0 a154.35 154.35 0 1 0 -308.7 0z" fill="rgba(1, 13, 25, 1)" class="triangle-float3"></path></g><defs><mask id="SvgjsMask1138"><rect width="1440" height="560" fill="#ffffff"></rect></mask></defs></svg>