<svg xmlns="http://www.w3.org/2000/svg" version="1.1" xmlns:xlink="http://www.w3.org/1999/xlink" xmlns:svgjs="http://svgjs.dev/svgjs" width="1440" height="560" preserveAspectRatio="none" viewBox="0 0 1440 560"><g mask="url(&quot;#SvgjsMask1018&quot;)" fill="none"><rect width="1440" height="560" x="0" y="0" fill="rgba(74, 71, 71, 1)"></rect><path d="M1440 0L1415.56 0L1440 264.01z" fill="rgba(255, 255, 255, .1)"></path><path d="M1415.56 0L1440 264.01L1440 275.51L632.28 0z" fill="rgba(255, 255, 255, .075)"></path><path d="M632.28 0L1440 275.51L1440 350.84L582.1899999999999 0z" fill="rgba(255, 255, 255, .05)"></path><path d="M582.1899999999999 0L1440 350.84L1440 475.96L193.61999999999995 0z" fill="rgba(255, 255, 255, .025)"></path><path d="M0 560L488.05 560L0 393.53z" fill="rgba(0, 0, 0, .1)"></path><path d="M0 393.53L488.05 560L601.71 560L0 255.74999999999997z" fill="rgba(0, 0, 0, .075)"></path><path d="M0 255.75L601.71 560L765.6600000000001 560L0 158.93z" fill="rgba(0, 0, 0, .05)"></path><path d="M0 158.93L765.6600000000001 560L1210.2800000000002 560L0 82.65z" fill="rgba(0, 0, 0, .025)"></path></g><defs><mask id="SvgjsMask1018"><rect width="1440" height="560" fill="#ffffff"></rect></mask></defs></svg>